<svg width="59" height="52" viewBox="0 0 59 52" fill="none" xmlns="http://www.w3.org/2000/svg">
<path d="M58.0469 17.9585V19.2258C58.0469 23.2107 57.06 27.1336 55.1744 30.6441C53.2888 34.1547 50.5632 37.1436 47.2409 39.344L36.3906 46.5299L32.4531 49.1373L29.5 51.0938L28.5156 50.449L25.5625 48.5135L24.1475 47.5869L13.5371 40.636L12.143 39.723L11.8588 39.536C8.50874 37.3411 5.75774 34.3468 3.85386 30.8232C1.94998 27.2997 0.953098 23.3576 0.953125 19.3526V16.5065C0.953202 13.3799 1.84488 10.3181 3.52357 7.68035C4.84733 5.59952 6.67475 3.88636 8.83659 2.6995C10.9984 1.51265 13.4248 0.890487 15.891 0.890625H16.2638C18.5397 0.89073 20.7843 1.42071 22.8198 2.43859C24.8554 3.45647 26.626 4.9343 27.9914 6.75504L29.5 8.76562L31.0086 6.75504C32.4598 4.81986 34.3674 3.27387 36.5612 2.25491C38.755 1.23596 41.1669 0.775714 43.5818 0.915207C45.9966 1.0547 48.3395 1.7896 50.4014 3.05438C52.4632 4.31916 54.1801 6.07451 55.3989 8.16393C57.1324 11.1371 58.0461 14.5169 58.0469 17.9585V17.9585Z" fill="#5D62B5"/>
</svg>
